<?xml version="1.0"?>
<svg version="1.1" id="Layer_1" xmlns="http://www.w3.org/2000/svg" xmlns:xlink="http://www.w3.org/1999/xlink" x="0px" y="0px"
	 viewBox="0 0 256 256" style="enable-background:new 0 0 256 256;" xml:space="preserve">
 <style type="text/css">.st0{fill:#FF4500;}
	.st1{fill:url(#SVGID_1_);}
	.st2{fill:url(#SVGID_00000143587662857369923940000013768445963243616390_);}
	.st3{fill:url(#SVGID_00000049923657610354670690000015505824909587812999_);}
	.st4{fill:#842123;}
	.st5{fill:url(#SVGID_00000017509965014435289950000010385374274650224513_);}
	.st6{fill:url(#SVGID_00000150794207758787585400000007442167834910095251_);}
	.st7{fill:#BBCFDA;}
	.st8{fill:#FFFFFF;}
	.st9{fill:url(#SVGID_00000123405508878946926800000007059768908544304044_);}
	.st10{fill:url(#SVGID_00000097495304247950925070000004198053296767481484_);}
	.st11{fill:url(#SVGID_00000000225171639171053760000003181848172219113636_);}
	.st12{fill:#FF6101;}
	.st13{fill:#FFC49C;}</style>
 <defs>
  <radialGradient cx="672.26" cy="1.81" fx="672.26" fy="-7.32" gradientTransform="matrix(0.47 0 0 -0.41 -260.07 108.3)" gradientUnits="userSpaceOnUse" id="SVGID_00000036246770641878814990000005919777119678409602_" r="127.45">
   <stop offset="0" stop-color="#FEFFFF"/>
   <stop offset="0.4" stop-color="#FEFFFF"/>
   <stop offset="0.51" stop-color="#F9FCFC"/>
   <stop offset="0.62" stop-color="#EDF3F5"/>
   <stop offset="0.7" stop-color="#DEE9EC"/>
   <stop offset="0.72" stop-color="#D8E4E8"/>
   <stop offset="0.76" stop-color="#CCD8DF"/>
   <stop offset="0.8" stop-color="#C8D5DD"/>
   <stop offset="0.83" stop-color="#CCD6DE"/>
   <stop offset="0.85" stop-color="#D8DBE2"/>
   <stop offset="0.88" stop-color="#EDE3E9"/>
   <stop offset="0.9" stop-color="#FFEBEF"/>
  </radialGradient>
  <radialGradient cx="830.68" cy="-224.68" gradientTransform="matrix(0.47 0 0 -0.33 -260.07 25.03)" gradientUnits="userSpaceOnUse" id="SVGID_00000018938084004212545110000003812637463316940965_" r="384.44">
   <stop offset="0" stop-color="#FEFFFF"/>
   <stop offset="0.4" stop-color="#FEFFFF"/>
   <stop offset="0.51" stop-color="#F9FCFC"/>
   <stop offset="0.62" stop-color="#EDF3F5"/>
   <stop offset="0.7" stop-color="#DEE9EC"/>
   <stop offset="0.72" stop-color="#D8E4E8"/>
   <stop offset="0.76" stop-color="#CCD8DF"/>
   <stop offset="0.8" stop-color="#C8D5DD"/>
   <stop offset="0.83" stop-color="#CCD6DE"/>
   <stop offset="0.85" stop-color="#D8DBE2"/>
   <stop offset="0.88" stop-color="#EDE3E9"/>
   <stop offset="0.9" stop-color="#FFEBEF"/>
  </radialGradient>
  <radialGradient cx="-2957.26" cy="173.42" gradientTransform="matrix(-0.47 0 0 0.69 -1224.63 31.31)" gradientUnits="userSpaceOnUse" id="SVGID_00000100358442326342623590000001008359023910400391_" r="32.12">
   <stop offset="0" stop-color="#FF6600"/>
   <stop offset="0.5" stop-color="#FF4500"/>
   <stop offset="0.7" stop-color="#FC4301"/>
   <stop offset="0.82" stop-color="#F43F07"/>
   <stop offset="0.92" stop-color="#E53812"/>
   <stop offset="1" stop-color="#D4301F"/>
  </radialGradient>
  <radialGradient cx="745.24" cy="173.42" gradientTransform="matrix(0.47 0 0 0.69 -260.07 31.31)" gradientUnits="userSpaceOnUse" id="SVGID_00000101795553196247918750000016558665307898727865_" r="32.12">
   <stop offset="0" stop-color="#FF6600"/>
   <stop offset="0.5" stop-color="#FF4500"/>
   <stop offset="0.7" stop-color="#FC4301"/>
   <stop offset="0.82" stop-color="#F43F07"/>
   <stop offset="0.92" stop-color="#E53812"/>
   <stop offset="1" stop-color="#D4301F"/>
  </radialGradient>
  <radialGradient cx="826.47" cy="-508.48" gradientTransform="matrix(0.47 0 0 -0.31 -260.07 37.28)" gradientUnits="userSpaceOnUse" id="SVGID_00000129915728043071345700000001618660102739666578_" r="113.26">
   <stop offset="0" stop-color="#172E35"/>
   <stop offset="0.29" stop-color="#0E1C21"/>
   <stop offset="0.73" stop-color="#030708"/>
   <stop offset="1" stop-color="#000000"/>
  </radialGradient>
  <radialGradient cx="926.35" cy="277.9" gradientTransform="matrix(0.47 0 0 -0.47 -260.07 164.72)" gradientUnits="userSpaceOnUse" id="SVGID_00000132773094689987568360000004811110407827195799_" r="99.42">
   <stop offset="0" stop-color="#FEFFFF"/>
   <stop offset="0.4" stop-color="#FEFFFF"/>
   <stop offset="0.51" stop-color="#F9FCFC"/>
   <stop offset="0.62" stop-color="#EDF3F5"/>
   <stop offset="0.7" stop-color="#DEE9EC"/>
   <stop offset="0.72" stop-color="#D8E4E8"/>
   <stop offset="0.76" stop-color="#CCD8DF"/>
   <stop offset="0.8" stop-color="#C8D5DD"/>
   <stop offset="0.83" stop-color="#CCD6DE"/>
   <stop offset="0.85" stop-color="#D8DBE2"/>
   <stop offset="0.88" stop-color="#EDE3E9"/>
   <stop offset="0.9" stop-color="#FFEBEF"/>
  </radialGradient>
  <radialGradient cx="884.92" cy="177.56" gradientTransform="matrix(0.47 0 0 -0.47 -260.07 168.5)" gradientUnits="userSpaceOnUse" id="SVGID_00000093173154653334829310000007940785063173693333_" r="81.49">
   <stop offset="0.48" stop-color="#7A9299"/>
   <stop offset="0.67" stop-color="#172E35"/>
   <stop offset="0.75" stop-color="#000000"/>
   <stop offset="0.82" stop-color="#172E35"/>
  </radialGradient>
 </defs>
 <g class="layer">
  <title>Layer 1</title>
  <path class="st0" d="m128,0l0,0c-70.7,0 -128,57.3 -128,128l0,0c0,35.4 14.3,67.4 37.5,90.5l-24.4,24.4c-4.8,4.8 -1.4,13.1 5.4,13.1l109.5,0l0,0c70.7,0 128,-57.3 128,-128l0,0c0,-70.7 -57.3,-128 -128,-128z" id="svg_1"/>
  <g id="svg_2">
   <circle class="st1" cx="200.6" cy="123.7" id="svg_3" r="29.9"/>
   <circle cx="55.4" cy="123.7" fill="url(#SVGID_00000036246770641878814990000005919777119678409602_)" id="svg_4" r="29.9"/>
   <ellipse cx="128.1" cy="149.3" fill="url(#SVGID_00000018938084004212545110000003812637463316940965_)" id="svg_5" rx="85.3" ry="64"/>
   <path class="st4" d="m102.8,143.1c-0.5,10.8 -7.7,14.8 -16.1,14.8s-14.8,-5.6 -14.3,-16.4s7.7,-18 16.1,-18s14.8,8.8 14.3,19.6z" id="svg_6"/>
   <path class="st4" d="m183.6,141.5c0.5,10.8 -5.9,16.4 -14.3,16.4s-15.6,-3.9 -16.1,-14.8c-0.5,-10.8 5.9,-19.6 14.3,-19.6s15.6,7.1 16.1,18l0,0z" id="svg_7"/>
   <path d="m153.3,144.1c0.5,10.1 7.2,13.8 15,13.8s13.8,-5.5 13.4,-15.7c-0.5,-10.1 -7.2,-16.8 -15,-16.8s-13.9,8.5 -13.4,18.7z" fill="url(#SVGID_00000100358442326342623590000001008359023910400391_)" id="svg_8"/>
   <path d="m102.8,144.1c-0.5,10.1 -7.2,13.8 -15,13.8s-13.8,-5.5 -13.3,-15.7c0.5,-10.1 7.2,-16.8 15,-16.8s13.8,8.5 13.3,18.7z" fill="url(#SVGID_00000101795553196247918750000016558665307898727865_)" id="svg_9"/>
   <path class="st7" d="m128.1,165.1c-10.6,0 -20.7,0.5 -30.1,1.4c-1.6,0.2 -2.6,1.8 -2,3.2c5.2,12.3 17.6,21 32.1,21s26.8,-8.6 32.1,-21c0.6,-1.5 -0.4,-3.1 -2,-3.2c-9.4,-0.9 -19.5,-1.4 -30.1,-1.4z" id="svg_10"/>
   <path class="st8" d="m128.1,167.5c-10.6,0 -20.7,0.5 -30,1.5c-1.6,0.2 -2.6,1.8 -2,3.3c5.2,12.5 17.6,21.3 32,21.3s26.8,-8.8 32,-21.3c0.6,-1.5 -0.4,-3.1 -2,-3.3c-9.4,-1 -19.5,-1.5 -30,-1.5l0,0z" id="svg_11"/>
   <path d="m128.1,166.2c-10.4,0 -20.3,0.5 -29.5,1.4c-1.6,0.2 -2.6,1.8 -2,3.2c5.2,12.3 17.3,21 31.5,21s26.3,-8.6 31.5,-21c0.6,-1.5 -0.4,-3.1 -2,-3.2c-9.2,-0.8 -19.1,-1.4 -29.5,-1.4z" fill="url(#SVGID_00000129915728043071345700000001618660102739666578_)" id="svg_12"/>
   <circle cx="174.8" cy="55.5" fill="url(#SVGID_00000132773094689987568360000004811110407827195799_)" id="svg_13" r="21.2"/>
   <path d="m127.8,88c-2.5,0 -4.6,-1.1 -4.6,-2.7c0,-19 15.4,-34.4 34.4,-34.4c2.5,0 4.6,2.1 4.6,4.6s-2.1,4.6 -4.6,4.6c-13.9,0 -25.2,11.3 -25.2,25.2c0,1.7 -2.1,2.7 -4.6,2.7z" fill="url(#SVGID_00000093173154653334829310000007940785063173693333_)" id="svg_14"/>
   <path class="st12" d="m97.3,149.1c0,3.9 -4.2,5.7 -9.3,5.7s-9.3,-1.8 -9.3,-5.7s4.2,-7.1 9.3,-7.1s9.3,3.1 9.3,7.1z" id="svg_15"/>
   <path class="st12" d="m177.5,149.1c0,3.9 -4.2,5.7 -9.3,5.7s-9.3,-1.8 -9.3,-5.7s4.2,-7.1 9.3,-7.1s9.3,3.1 9.3,7.1z" id="svg_16"/>
   <ellipse class="st13" cx="94.4" cy="134.8" id="svg_17" rx="3.3" ry="3.6"/>
   <ellipse class="st13" cx="173.3" cy="134.8" id="svg_18" rx="3.3" ry="3.6"/>
  </g>
  <text fill="#000000" font-family="Times" font-size="78" font-weight="bold" id="svg_19" stroke="#000000" stroke-width="0" text-anchor="middle" x="63.5" xml:space="preserve" y="55.5">my</text>
 </g>
</svg>